<svg width="180" height="102" viewBox="0 0 180 102" fill="none" xmlns="http://www.w3.org/2000/svg">
<g clip-path="url(#clip0_928_634)">
<path d="M0 0H180V102H0V0Z" fill="#008000"/>
<path d="M148.605 75.4316L150.785 79.257L155.637 78.3007L153.457 82.126L157.395 84.756L152.508 85.7123V89.9561L148.605 87.2963L144.703 89.9561V85.7123L139.852 84.756L143.754 82.126L141.574 78.3007L146.461 79.257L148.605 75.4316ZM132.223 34.6974L134.402 38.5526L139.254 37.5963L137.074 41.4217L141.012 44.0516L136.125 44.9781V49.2517L132.223 46.5919L128.32 49.2517L128.355 44.9781L123.469 44.0516L127.371 41.4217L125.191 37.5963L130.078 38.5526L132.223 34.6974ZM145.23 11.4463L147.41 15.2717L152.262 14.3153L150.082 18.1407L154.02 20.8005L149.133 21.727V25.9708L145.23 23.3109L141.328 25.9708L141.363 21.727L136.477 20.8005L140.379 18.1407L138.199 14.3153L143.086 15.2717L145.23 11.4463ZM163.441 28.8996L165.621 32.7249L170.508 31.7686L168.293 35.594L172.23 38.2538L167.344 39.1802L167.379 43.424L163.441 40.7642L159.539 43.424L159.574 39.1802L154.687 38.2538L158.625 35.594L156.41 31.7686L161.297 32.7249L163.441 28.8996ZM153.598 49.2517L155.32 53.6748H160.805L156.375 56.4243L158.062 60.8773L153.598 58.1278L149.168 60.8773L150.855 56.4243L146.426 53.6748H151.91L153.598 49.2517Z" fill="#FFDA44"/>
<path d="M107.859 76.1188C90.5625 76.1188 76.5352 64.1943 76.5352 49.4906C76.5352 34.7868 90.5625 22.8624 107.859 22.8624C113.238 22.8624 118.336 24.0279 122.766 26.0602C115.805 20.2922 106.277 16.7358 95.8008 16.7358C74.5312 16.7358 57.2695 31.4097 57.2695 49.4906C57.2695 67.5714 74.5312 82.2752 95.8008 82.2752C106.277 82.2752 115.805 78.7188 122.73 72.921C118.301 74.9532 113.238 76.1188 107.859 76.1188ZM49.3594 17.7818C45.5977 12.2529 38.5664 8.54712 30.5156 8.54712C22.4648 8.54712 15.4687 12.2529 11.707 17.7818H49.3594ZM49.4297 17.9014L30.5156 33.9799L11.6367 17.9014C9.84375 20.5911 8.78906 23.6992 8.78906 27.0464C8.78906 37.2673 18.5273 45.5457 30.5508 45.5457C42.5742 45.5457 52.3125 37.2673 52.3125 27.0464C52.2773 23.6992 51.2227 20.5911 49.4297 17.9014Z" fill="#FFDA44"/>
<path d="M25.1016 29.3479V44.9483C26.8242 45.3368 28.6523 45.5161 30.5508 45.5161C32.4492 45.5161 34.2422 45.3069 36 44.9483V29.3479H25.1016Z" fill="#A2001D"/>
</g>
<defs>
<clipPath id="clip0_928_634">
<rect width="180" height="102" fill="white"/>
</clipPath>
</defs>
</svg>
