<svg width="32" height="32" viewBox="0 0 32 32" fill="none" xmlns="http://www.w3.org/2000/svg">
<circle cx="16" cy="16" r="16" fill="#F2F2F2"/>
<path d="M10.4615 22.4231C10.4615 22.5372 10.4277 22.6487 10.3643 22.7436C10.3009 22.8385 10.2108 22.9124 10.1054 22.9561C9.99997 22.9997 9.88397 23.0112 9.77206 22.9889C9.66015 22.9667 9.55735 22.9117 9.47666 22.831C9.39598 22.7503 9.34103 22.6475 9.31877 22.5356C9.29651 22.4237 9.30794 22.3077 9.3516 22.2023C9.39527 22.0969 9.46921 22.0068 9.56409 21.9434C9.65896 21.88 9.77051 21.8462 9.88461 21.8462C10.0376 21.8462 10.1844 21.9069 10.2926 22.0151C10.4007 22.1233 10.4615 22.2701 10.4615 22.4231ZM12.1923 19.5385C12.0782 19.5385 11.9667 19.5723 11.8718 19.6357C11.7769 19.6991 11.703 19.7892 11.6593 19.8946C11.6156 20 11.6042 20.116 11.6265 20.2279C11.6487 20.3399 11.7037 20.4427 11.7844 20.5233C11.865 20.604 11.9678 20.659 12.0797 20.6812C12.1917 20.7035 12.3077 20.6921 12.4131 20.6484C12.5185 20.6047 12.6086 20.5308 12.672 20.4359C12.7354 20.341 12.7692 20.2295 12.7692 20.1154C12.7692 19.9624 12.7084 19.8156 12.6002 19.7074C12.492 19.5992 12.3453 19.5385 12.1923 19.5385ZM7.57692 19.5385C7.46282 19.5385 7.35128 19.5723 7.2564 19.6357C7.16153 19.6991 7.08758 19.7892 7.04392 19.8946C7.00025 20 6.98882 20.116 7.01109 20.2279C7.03335 20.3399 7.08829 20.4427 7.16898 20.5233C7.24966 20.604 7.35246 20.659 7.46437 20.6812C7.57628 20.7035 7.69228 20.6921 7.7977 20.6484C7.90312 20.6047 7.99322 20.5308 8.05662 20.4359C8.12001 20.341 8.15384 20.2295 8.15384 20.1154C8.15384 19.9624 8.09306 19.8156 7.98487 19.7074C7.87667 19.5992 7.72993 19.5385 7.57692 19.5385ZM9.88461 17.2308C9.77051 17.2308 9.65896 17.2646 9.56409 17.328C9.46921 17.3914 9.39527 17.4815 9.3516 17.5869C9.30794 17.6923 9.29651 17.8083 9.31877 17.9203C9.34103 18.0322 9.39598 18.135 9.47666 18.2156C9.55735 18.2963 9.66015 18.3513 9.77206 18.3735C9.88397 18.3958 9.99997 18.3844 10.1054 18.3407C10.2108 18.297 10.3009 18.2231 10.3643 18.1282C10.4277 18.0333 10.4615 17.9218 10.4615 17.8077C10.4615 17.6547 10.4007 17.5079 10.2926 17.3998C10.1844 17.2916 10.0376 17.2308 9.88461 17.2308ZM24.3077 8.28849C24.3077 8.36499 24.2773 8.43837 24.2232 8.49246C24.1691 8.54656 24.0957 8.57695 24.0192 8.57695H21.9502C21.8739 8.57708 21.8008 8.60742 21.7468 8.66133L19.6728 10.7354L18.0956 19.9712C18.0694 20.1278 18.0005 20.2741 17.8966 20.3942C17.7926 20.5143 17.6577 20.6034 17.5065 20.6519C17.4204 20.6791 17.3306 20.6927 17.2404 20.6923C17.0114 20.6917 16.792 20.6004 16.6303 20.4385L9.56298 13.3712C9.45023 13.259 9.37056 13.118 9.33272 12.9635C9.29487 12.8091 9.30032 12.6472 9.34845 12.4956C9.39659 12.3441 9.48555 12.2087 9.60558 12.1044C9.7256 12.0001 9.87205 11.9309 10.0288 11.9043L19.2596 10.3272L21.3336 8.25315C21.4144 8.17207 21.5105 8.10792 21.6164 8.06446C21.7223 8.02099 21.8358 7.99909 21.9502 8.00003H24.0192C24.0957 8.00003 24.1691 8.03042 24.2232 8.08452C24.2773 8.13861 24.3077 8.21199 24.3077 8.28849ZM19.0512 10.9488L10.1276 12.4712C10.0752 12.4796 10.026 12.5024 9.98569 12.537C9.94534 12.5716 9.91534 12.6167 9.899 12.6673C9.88267 12.7179 9.88062 12.772 9.8931 12.8237C9.90557 12.8753 9.93209 12.9226 9.96971 12.9601L17.037 20.0274C17.0745 20.065 17.1216 20.0915 17.1731 20.1041C17.2247 20.1166 17.2787 20.1147 17.3293 20.0985C17.3798 20.0824 17.4249 20.0526 17.4596 20.0124C17.4943 19.9722 17.5173 19.9233 17.5259 19.8709L19.0512 10.9488Z" fill="#7C6A46"/>
</svg>
