<svg width="32" height="32" viewBox="0 0 32 32" fill="none" xmlns="http://www.w3.org/2000/svg">
<circle cx="16" cy="16" r="16" fill="#F2F2F2"/>
<path d="M13.1765 23V22.1176H14.0588V21.2353H9.64706C8.94502 21.2353 8.27173 20.9564 7.77531 20.46C7.27889 19.9636 7 19.2903 7 18.5882V10.6471C7 9.94502 7.27889 9.27173 7.77531 8.77531C8.27173 8.27889 8.94502 8 9.64706 8H22.8824C23.5844 8 24.2577 8.27889 24.7541 8.77531C25.2505 9.27173 25.5294 9.94502 25.5294 10.6471V18.5882C25.5294 19.2903 25.2505 19.9636 24.7541 20.46C24.2577 20.9564 23.5844 21.2353 22.8824 21.2353H18.4706V22.1176H19.3529V23H13.1765ZM14.9412 21.2353V22.1176H17.5882V21.2353H14.9412ZM9.64706 8.88235C9.17903 8.88235 8.73017 9.06828 8.39922 9.39922C8.06828 9.73017 7.88235 10.179 7.88235 10.6471V18.5882C7.88235 19.0563 8.06828 19.5051 8.39922 19.8361C8.73017 20.167 9.17903 20.3529 9.64706 20.3529H22.8824C23.3504 20.3529 23.7992 20.167 24.1302 19.8361C24.4611 19.5051 24.6471 19.0563 24.6471 18.5882V10.6471C24.6471 10.179 24.4611 9.73017 24.1302 9.39922C23.7992 9.06828 23.3504 8.88235 22.8824 8.88235H9.64706Z" fill="#7C6A46"/>
</svg>
