<svg width="32" height="32" viewBox="0 0 32 32" fill="none" xmlns="http://www.w3.org/2000/svg">
<circle cx="16" cy="16" r="16" fill="#F2F2F2"/>
<path d="M19.3516 17.4951C18.5377 16.8154 17.5116 16.4418 16.4512 16.4389C15.3908 16.4359 14.3627 16.8039 13.5451 17.4791V17.4951M22.1233 14.3444C20.5225 13.0238 18.512 12.3016 16.4369 12.3016C14.3617 12.3016 12.3512 13.0238 10.7505 14.3444M24.8556 11.0373C22.4858 9.07422 19.5051 8 16.4278 8C13.3505 8 10.3698 9.07422 8 11.0373M16.4369 19.3557C16.0765 19.3557 15.7242 19.4626 15.4246 19.6628C15.1249 19.863 14.8914 20.1476 14.7534 20.4806C14.6155 20.8135 14.5794 21.1799 14.6498 21.5333C14.7201 21.8868 14.8936 22.2115 15.1484 22.4663C15.4033 22.7211 15.7279 22.8947 16.0814 22.965C16.4349 23.0353 16.8012 22.9992 17.1342 22.8613C17.4671 22.7234 17.7517 22.4898 17.9519 22.1902C18.1521 21.8905 18.259 21.5382 18.259 21.1779C18.259 20.9386 18.2119 20.7016 18.1203 20.4806C18.0287 20.2595 17.8945 20.0586 17.7253 19.8894C17.5561 19.7202 17.3553 19.586 17.1342 19.4944C16.9131 19.4029 16.6762 19.3557 16.4369 19.3557Z" stroke="#7C6A46" stroke-linecap="round" stroke-linejoin="round"/>
</svg>
